<mxfile host="65bd71144e">
    <diagram id="4vPZcTN9GLReFkVKcJ1D" name="Page-1">
        <mxGraphModel dx="2054" dy="600" grid="1" gridSize="10" guides="1" tooltips="1" connect="1" arrows="1" fold="1" page="1" pageScale="1" pageWidth="1100" pageHeight="850" background="#191724" math="1" shadow="0">
            <root>
                <mxCell id="0"/>
                <mxCell id="1" parent="0"/>
                <mxCell id="2" value="" style="shape=table;startSize=0;container=1;collapsible=0;childLayout=tableLayout;fillColor=none;fontColor=#FFFFFF;strokeColor=#FFFFFF;" parent="1" vertex="1">
                    <mxGeometry x="150" y="190" width="590" height="200" as="geometry"/>
                </mxCell>
                <mxCell id="3" value="" style="shape=tableRow;horizontal=0;startSize=0;swimlaneHead=0;swimlaneBody=0;top=0;left=0;bottom=0;right=0;collapsible=0;dropTarget=0;fillColor=none;points=[[0,0.5],[1,0.5]];portConstraint=eastwest;fontColor=#FFFFFF;strokeColor=#FFFFFF;" parent="2" vertex="1">
                    <mxGeometry width="590" height="66" as="geometry"/>
                </mxCell>
                <mxCell id="4" value="&lt;font style=&quot;font-size: 25px;&quot;&gt;B&lt;/font&gt;" style="shape=partialRectangle;html=1;whiteSpace=wrap;connectable=0;overflow=hidden;fillColor=none;top=0;left=0;bottom=0;right=0;pointerEvents=1;rowspan=3;colspan=1;fontColor=#FFFFFF;strokeColor=#FFFFFF;" parent="3" vertex="1">
                    <mxGeometry width="60" height="200" as="geometry">
                        <mxRectangle width="60" height="66" as="alternateBounds"/>
                    </mxGeometry>
                </mxCell>
                <mxCell id="57" style="shape=partialRectangle;html=1;whiteSpace=wrap;connectable=0;overflow=hidden;fillColor=#636363;top=0;left=0;bottom=0;right=0;pointerEvents=1;rowspan=3;colspan=1;fillStyle=cross-hatch;fontColor=#FFFFFF;strokeColor=#FFFFFF;" parent="3" vertex="1">
                    <mxGeometry x="60" width="60" height="200" as="geometry">
                        <mxRectangle width="60" height="66" as="alternateBounds"/>
                    </mxGeometry>
                </mxCell>
                <mxCell id="5" value="&lt;font style=&quot;font-size: 20px;&quot;&gt;\(B_1\)&lt;/font&gt;" style="shape=partialRectangle;html=1;whiteSpace=wrap;connectable=0;overflow=hidden;fillColor=none;top=0;left=0;bottom=0;right=0;pointerEvents=1;fontColor=#FFFFFF;strokeColor=#FFFFFF;" parent="3" vertex="1">
                    <mxGeometry x="120" width="60" height="66" as="geometry">
                        <mxRectangle width="60" height="66" as="alternateBounds"/>
                    </mxGeometry>
                </mxCell>
                <mxCell id="6" value="" style="shape=partialRectangle;html=1;whiteSpace=wrap;connectable=0;overflow=hidden;fillColor=#636363;top=0;left=0;bottom=0;right=0;pointerEvents=1;rowspan=3;colspan=1;fillStyle=cross-hatch;fontColor=#FFFFFF;strokeColor=#FFFFFF;" parent="3" vertex="1">
                    <mxGeometry x="180" width="60" height="200" as="geometry">
                        <mxRectangle width="60" height="66" as="alternateBounds"/>
                    </mxGeometry>
                </mxCell>
                <mxCell id="7" value="&lt;font style=&quot;font-size: 15px;&quot;&gt;\(RefTable_1\)&lt;br&gt;\(RFPTable_1\)&lt;br&gt;&lt;/font&gt;" style="shape=partialRectangle;html=1;whiteSpace=wrap;connectable=0;overflow=hidden;fillColor=none;top=0;left=0;bottom=0;right=0;pointerEvents=1;fontColor=#FFFFFF;strokeColor=#FFFFFF;" parent="3" vertex="1">
                    <mxGeometry x="240" width="100" height="66" as="geometry">
                        <mxRectangle width="100" height="66" as="alternateBounds"/>
                    </mxGeometry>
                </mxCell>
                <mxCell id="8" value="" style="shape=partialRectangle;html=1;whiteSpace=wrap;connectable=0;overflow=hidden;fillColor=#636363;top=0;left=0;bottom=0;right=0;pointerEvents=1;rowspan=3;colspan=1;fillStyle=cross-hatch;fontColor=#FFFFFF;strokeColor=#FFFFFF;" parent="3" vertex="1">
                    <mxGeometry x="340" width="60" height="200" as="geometry">
                        <mxRectangle width="60" height="66" as="alternateBounds"/>
                    </mxGeometry>
                </mxCell>
                <mxCell id="63" value="&lt;font style=&quot;font-size: 25px;&quot;&gt;RefTable, RFPTables[1..P]&lt;/font&gt;" style="shape=partialRectangle;html=1;whiteSpace=wrap;connectable=0;overflow=hidden;fillColor=none;top=0;left=0;bottom=0;right=0;pointerEvents=1;rowspan=3;colspan=1;fontColor=#FFFFFF;strokeColor=#FFFFFF;" parent="3" vertex="1">
                    <mxGeometry x="400" width="190" height="200" as="geometry">
                        <mxRectangle width="190" height="66" as="alternateBounds"/>
                    </mxGeometry>
                </mxCell>
                <mxCell id="9" value="" style="shape=tableRow;horizontal=0;startSize=0;swimlaneHead=0;swimlaneBody=0;top=0;left=0;bottom=0;right=0;collapsible=0;dropTarget=0;fillColor=none;points=[[0,0.5],[1,0.5]];portConstraint=eastwest;fontColor=#FFFFFF;strokeColor=#FFFFFF;" parent="2" vertex="1">
                    <mxGeometry y="66" width="590" height="68" as="geometry"/>
                </mxCell>
                <mxCell id="10" value="" style="shape=partialRectangle;html=1;whiteSpace=wrap;connectable=0;overflow=hidden;fillColor=none;top=0;left=0;bottom=0;right=0;pointerEvents=1;" parent="9" vertex="1" visible="0">
                    <mxGeometry width="60" height="68" as="geometry">
                        <mxRectangle width="60" height="68" as="alternateBounds"/>
                    </mxGeometry>
                </mxCell>
                <mxCell id="58" style="shape=partialRectangle;html=1;whiteSpace=wrap;connectable=0;overflow=hidden;fillColor=none;top=0;left=0;bottom=0;right=0;pointerEvents=1;" parent="9" vertex="1" visible="0">
                    <mxGeometry x="60" width="60" height="68" as="geometry">
                        <mxRectangle width="60" height="68" as="alternateBounds"/>
                    </mxGeometry>
                </mxCell>
                <mxCell id="11" value="\(\bullet\bullet\bullet&lt;br&gt;\)" style="shape=partialRectangle;html=1;whiteSpace=wrap;connectable=0;overflow=hidden;fillColor=none;top=0;left=0;bottom=0;right=0;pointerEvents=1;fontColor=#FFFFFF;strokeColor=#FFFFFF;" parent="9" vertex="1">
                    <mxGeometry x="120" width="60" height="68" as="geometry">
                        <mxRectangle width="60" height="68" as="alternateBounds"/>
                    </mxGeometry>
                </mxCell>
                <mxCell id="12" value="" style="shape=partialRectangle;html=1;whiteSpace=wrap;connectable=0;overflow=hidden;fillColor=none;top=0;left=0;bottom=0;right=0;pointerEvents=1;" parent="9" vertex="1" visible="0">
                    <mxGeometry x="180" width="60" height="68" as="geometry">
                        <mxRectangle width="60" height="68" as="alternateBounds"/>
                    </mxGeometry>
                </mxCell>
                <mxCell id="13" value="\(\bullet\bullet\bullet&lt;br&gt;\)" style="shape=partialRectangle;html=1;whiteSpace=wrap;connectable=0;overflow=hidden;fillColor=none;top=0;left=0;bottom=0;right=0;pointerEvents=1;fontColor=#FFFFFF;strokeColor=#FFFFFF;" parent="9" vertex="1">
                    <mxGeometry x="240" width="100" height="68" as="geometry">
                        <mxRectangle width="100" height="68" as="alternateBounds"/>
                    </mxGeometry>
                </mxCell>
                <mxCell id="14" value="" style="shape=partialRectangle;html=1;whiteSpace=wrap;connectable=0;overflow=hidden;fillColor=none;top=0;left=0;bottom=0;right=0;pointerEvents=1;" parent="9" vertex="1" visible="0">
                    <mxGeometry x="340" width="60" height="68" as="geometry">
                        <mxRectangle width="60" height="68" as="alternateBounds"/>
                    </mxGeometry>
                </mxCell>
                <mxCell id="64" style="shape=partialRectangle;html=1;whiteSpace=wrap;connectable=0;overflow=hidden;fillColor=none;top=0;left=0;bottom=0;right=0;pointerEvents=1;" parent="9" vertex="1" visible="0">
                    <mxGeometry x="400" width="190" height="68" as="geometry">
                        <mxRectangle width="190" height="68" as="alternateBounds"/>
                    </mxGeometry>
                </mxCell>
                <mxCell id="15" value="" style="shape=tableRow;horizontal=0;startSize=0;swimlaneHead=0;swimlaneBody=0;top=0;left=0;bottom=0;right=0;collapsible=0;dropTarget=0;fillColor=none;points=[[0,0.5],[1,0.5]];portConstraint=eastwest;fontColor=#FFFFFF;strokeColor=#FFFFFF;" parent="2" vertex="1">
                    <mxGeometry y="134" width="590" height="66" as="geometry"/>
                </mxCell>
                <mxCell id="16" value="" style="shape=partialRectangle;html=1;whiteSpace=wrap;connectable=0;overflow=hidden;fillColor=none;top=0;left=0;bottom=0;right=0;pointerEvents=1;" parent="15" vertex="1" visible="0">
                    <mxGeometry width="60" height="66" as="geometry">
                        <mxRectangle width="60" height="66" as="alternateBounds"/>
                    </mxGeometry>
                </mxCell>
                <mxCell id="59" style="shape=partialRectangle;html=1;whiteSpace=wrap;connectable=0;overflow=hidden;fillColor=none;top=0;left=0;bottom=0;right=0;pointerEvents=1;" parent="15" vertex="1" visible="0">
                    <mxGeometry x="60" width="60" height="66" as="geometry">
                        <mxRectangle width="60" height="66" as="alternateBounds"/>
                    </mxGeometry>
                </mxCell>
                <mxCell id="17" value="&lt;span style=&quot;font-size: 20px;&quot;&gt;\(B_P\)&lt;/span&gt;" style="shape=partialRectangle;html=1;whiteSpace=wrap;connectable=0;overflow=hidden;fillColor=none;top=0;left=0;bottom=0;right=0;pointerEvents=1;fontColor=#FFFFFF;strokeColor=#FFFFFF;" parent="15" vertex="1">
                    <mxGeometry x="120" width="60" height="66" as="geometry">
                        <mxRectangle width="60" height="66" as="alternateBounds"/>
                    </mxGeometry>
                </mxCell>
                <mxCell id="18" value="" style="shape=partialRectangle;html=1;whiteSpace=wrap;connectable=0;overflow=hidden;fillColor=none;top=0;left=0;bottom=0;right=0;pointerEvents=1;" parent="15" vertex="1" visible="0">
                    <mxGeometry x="180" width="60" height="66" as="geometry">
                        <mxRectangle width="60" height="66" as="alternateBounds"/>
                    </mxGeometry>
                </mxCell>
                <mxCell id="19" value="&lt;font style=&quot;font-size: 15px;&quot;&gt;\(RefTable_P\)&lt;br&gt;\(RFPTable_P\)&lt;br&gt;&lt;/font&gt;" style="shape=partialRectangle;html=1;whiteSpace=wrap;connectable=0;overflow=hidden;fillColor=none;top=0;left=0;bottom=0;right=0;pointerEvents=1;fontColor=#FFFFFF;strokeColor=#FFFFFF;" parent="15" vertex="1">
                    <mxGeometry x="240" width="100" height="66" as="geometry">
                        <mxRectangle width="100" height="66" as="alternateBounds"/>
                    </mxGeometry>
                </mxCell>
                <mxCell id="20" value="" style="shape=partialRectangle;html=1;whiteSpace=wrap;connectable=0;overflow=hidden;fillColor=none;top=0;left=0;bottom=0;right=0;pointerEvents=1;" parent="15" vertex="1" visible="0">
                    <mxGeometry x="340" width="60" height="66" as="geometry">
                        <mxRectangle width="60" height="66" as="alternateBounds"/>
                    </mxGeometry>
                </mxCell>
                <mxCell id="65" style="shape=partialRectangle;html=1;whiteSpace=wrap;connectable=0;overflow=hidden;fillColor=none;top=0;left=0;bottom=0;right=0;pointerEvents=1;" parent="15" vertex="1" visible="0">
                    <mxGeometry x="400" width="190" height="66" as="geometry">
                        <mxRectangle width="190" height="66" as="alternateBounds"/>
                    </mxGeometry>
                </mxCell>
                <mxCell id="60" value="&lt;font style=&quot;font-size: 25px;&quot;&gt;Split&lt;/font&gt;" style="text;html=1;fillColor=#636363;align=center;verticalAlign=middle;whiteSpace=wrap;rounded=0;fontSize=20;direction=east;rotation=-90;fillStyle=cross-hatch;fontColor=#FFFFFF;strokeColor=none;" parent="1" vertex="1">
                    <mxGeometry x="210" y="275" width="60" height="30" as="geometry"/>
                </mxCell>
                <mxCell id="61" value="InitTables" style="text;html=1;fillColor=#636363;align=center;verticalAlign=middle;whiteSpace=wrap;rounded=0;fontSize=25;rotation=-90;fillStyle=cross-hatch;fontColor=#FFFFFF;strokeColor=none;" parent="1" vertex="1">
                    <mxGeometry x="330" y="275" width="60" height="30" as="geometry"/>
                </mxCell>
                <mxCell id="62" value="&lt;font style=&quot;font-size: 25px;&quot;&gt;Merge&lt;/font&gt;" style="text;html=1;fillColor=#636363;align=center;verticalAlign=middle;whiteSpace=wrap;rounded=0;fontSize=20;rotation=-90;fillStyle=cross-hatch;fontColor=#FFFFFF;strokeColor=none;" parent="1" vertex="1">
                    <mxGeometry x="490" y="275" width="60" height="30" as="geometry"/>
                </mxCell>
                <mxCell id="67" value="" style="shape=flexArrow;endArrow=classic;html=1;fontSize=25;entryX=-0.013;entryY=0.5;entryDx=0;entryDy=0;entryPerimeter=0;fillColor=#1ba1e2;strokeColor=#006EAF;endSize=6;startSize=6;strokeWidth=1;startWidth=20;width=15;fontColor=#FFFFFF;" parent="1" target="3" edge="1">
                    <mxGeometry width="50" height="50" relative="1" as="geometry">
                        <mxPoint x="40" y="223" as="sourcePoint"/>
                        <mxPoint x="90" y="185" as="targetPoint"/>
                    </mxGeometry>
                </mxCell>
                <mxCell id="68" value="&lt;font style=&quot;font-size: 20px;&quot;&gt;Thread 1&lt;/font&gt;" style="text;html=1;strokeColor=none;fillColor=none;align=center;verticalAlign=middle;whiteSpace=wrap;rounded=0;fillStyle=auto;fontSize=25;fontColor=#FFFFFF;" parent="1" vertex="1">
                    <mxGeometry x="40" y="180" width="90" height="30" as="geometry"/>
                </mxCell>
                <mxCell id="69" value="" style="shape=flexArrow;endArrow=classic;html=1;fontSize=25;entryX=-0.014;entryY=0.675;entryDx=0;entryDy=0;entryPerimeter=0;fillColor=#1ba1e2;strokeColor=#006EAF;endSize=6;startSize=6;strokeWidth=1;startWidth=20;width=15;fontColor=#FFFFFF;" parent="1" edge="1">
                    <mxGeometry width="50" height="50" relative="1" as="geometry">
                        <mxPoint x="45.879999999999995" y="360" as="sourcePoint"/>
                        <mxPoint x="149.9999999999999" y="360" as="targetPoint"/>
                    </mxGeometry>
                </mxCell>
                <mxCell id="70" value="&lt;font style=&quot;font-size: 20px;&quot;&gt;Thread P&lt;/font&gt;" style="text;html=1;strokeColor=none;fillColor=none;align=center;verticalAlign=middle;whiteSpace=wrap;rounded=0;fillStyle=auto;fontSize=25;fontColor=#FFFFFF;" parent="1" vertex="1">
                    <mxGeometry x="45.879999999999995" y="363" width="90" height="30" as="geometry"/>
                </mxCell>
                <mxCell id="71" value="\(\bullet\bullet\bullet\)" style="text;html=1;strokeColor=none;fillColor=none;align=center;verticalAlign=middle;whiteSpace=wrap;rounded=0;fillStyle=auto;fontSize=20;fontColor=#FFFFFF;" parent="1" vertex="1">
                    <mxGeometry x="55" y="275" width="60" height="30" as="geometry"/>
                </mxCell>
                <mxCell id="76" value="" style="shape=flexArrow;endArrow=classic;html=1;fontSize=25;entryX=-0.013;entryY=0.5;entryDx=0;entryDy=0;entryPerimeter=0;fillColor=#1ba1e2;strokeColor=#006EAF;endSize=6;startSize=6;strokeWidth=1;startWidth=20;width=15;fontColor=#FFFFFF;" parent="1" edge="1">
                    <mxGeometry width="50" height="50" relative="1" as="geometry">
                        <mxPoint x="750" y="223" as="sourcePoint"/>
                        <mxPoint x="852.3299999999999" y="223" as="targetPoint"/>
                    </mxGeometry>
                </mxCell>
                <mxCell id="77" value="&lt;font style=&quot;font-size: 20px;&quot;&gt;Thread 1&lt;/font&gt;" style="text;html=1;strokeColor=none;fillColor=none;align=center;verticalAlign=middle;whiteSpace=wrap;rounded=0;fillStyle=auto;fontSize=25;fontColor=#FFFFFF;" parent="1" vertex="1">
                    <mxGeometry x="750" y="180" width="90" height="30" as="geometry"/>
                </mxCell>
                <mxCell id="78" value="" style="shape=flexArrow;endArrow=classic;html=1;fontSize=25;entryX=-0.014;entryY=0.675;entryDx=0;entryDy=0;entryPerimeter=0;fillColor=#1ba1e2;strokeColor=#006EAF;endSize=6;startSize=6;strokeWidth=1;startWidth=20;width=15;fontColor=#FFFFFF;" parent="1" edge="1">
                    <mxGeometry width="50" height="50" relative="1" as="geometry">
                        <mxPoint x="755.88" y="360" as="sourcePoint"/>
                        <mxPoint x="860" y="360" as="targetPoint"/>
                    </mxGeometry>
                </mxCell>
                <mxCell id="79" value="&lt;font style=&quot;font-size: 20px;&quot;&gt;Thread P&lt;/font&gt;" style="text;html=1;strokeColor=none;fillColor=none;align=center;verticalAlign=middle;whiteSpace=wrap;rounded=0;fillStyle=auto;fontSize=25;fontColor=#FFFFFF;" parent="1" vertex="1">
                    <mxGeometry x="755.88" y="363" width="90" height="30" as="geometry"/>
                </mxCell>
                <mxCell id="80" value="\(\bullet\bullet\bullet\)" style="text;html=1;strokeColor=none;fillColor=none;align=center;verticalAlign=middle;whiteSpace=wrap;rounded=0;fillStyle=auto;fontSize=20;fontColor=#FFFFFF;" parent="1" vertex="1">
                    <mxGeometry x="765" y="275" width="60" height="30" as="geometry"/>
                </mxCell>
            </root>
        </mxGraphModel>
    </diagram>
</mxfile>